<svg width="14" height="16" viewBox="0 0 14 16" fill="none" xmlns="http://www.w3.org/2000/svg">
<path fill-rule="evenodd" clip-rule="evenodd" d="M10.7203 11.6774L13.9888 15.5128L13.4219 16L10.1445 12.1646C9.01661 13.0208 7.74698 13.449 6.33563 13.449C5.47936 13.449 4.66002 13.2821 3.87759 12.9485C3.09517 12.6149 2.42198 12.1661 1.85801 11.6021C1.29404 11.0382 0.845244 10.365 0.511628 9.58254C0.178012 8.8001 0.0111927 7.98075 0.0111694 7.12451C0.0111462 6.26826 0.177966 5.44892 0.511628 4.66647C0.84529 3.88403 1.29408 3.21083 1.85801 2.64689C2.42193 2.08294 3.09513 1.63415 3.87759 1.30051C4.66006 0.966868 5.47941 0.800049 6.33563 0.800049C7.19185 0.800049 8.01119 0.966868 8.79366 1.30051C9.57613 1.63415 10.2493 2.08294 10.8132 2.64689C11.3772 3.21083 11.826 3.88403 12.1596 4.66647C12.4933 5.44892 12.6601 6.26826 12.6601 7.12451C12.6601 8.00437 12.4888 8.83701 12.1463 9.6224C11.8038 10.4078 11.3285 11.0928 10.7202 11.6774L10.7203 11.6774ZM6.3357 12.7049C7.34547 12.7049 8.2785 12.4554 9.13476 11.9564C9.99103 11.4574 10.6687 10.7797 11.1676 9.9235C11.6666 9.06726 11.9161 8.13424 11.9161 7.12444C11.9162 6.11464 11.6667 5.18162 11.1676 4.32537C10.6686 3.46913 9.99098 2.79151 9.13476 2.29253C8.27854 1.79355 7.34552 1.54406 6.3357 1.54406C5.32588 1.54406 4.39285 1.79355 3.53663 2.29253C2.68041 2.79151 2.0028 3.46913 1.50379 4.32537C1.00479 5.18162 0.755294 6.11464 0.755318 7.12444C0.755341 8.13424 1.00483 9.06726 1.50379 9.9235C2.00275 10.7797 2.68036 11.4574 3.53663 11.9564C4.3929 12.4554 5.32592 12.7049 6.3357 12.7049Z" fill="black"/>
</svg>
